{"title":"Once Upon a Time in Mumbaai 2010 Hindi Pre-DVDRip XviD","uid":5792913,"size":1099431482,"categoryP":"video","categoryS":"movies","magnet":"?xt=urn:btih:98da1ac22878904d9e965f6e80bea9e598f15149&amp;dn=Once+Upon+a+Time+in+Mumbaai+2010+Hindi+Pre-DVDRip+XviD&amp;tr=udp%3A%2F%2Ftracker.openbittorrent.com%3A80&amp;tr=udp%3A%2F%2Fopen.demonii.com%3A1337&amp;tr=udp%3A%2F%2Ftracker.coppersurfer.tk%3A6969&amp;tr=udp%3A%2F%2Fexodus.desync.com%3A6969","seeders":0,"leechers":0,"uploader":"juhi2009","files":1,"time":1282919726,"description":"This is the xRG file . I have processed the audio with both high and low filters .\n\nThe video has not been touched . It is quite good .\n\n\n\n\n\n\nFormat                           : AVI\nFormat/Info                      : Audio Video Interleave\nFile size                        : 1.02 GiB\nDuration                         : 2h 8mn\nOverall bit rate                 : 1 143 Kbps\nWriting application              : AVI-Mux GUI 1.17.8.3, Feb 16 201019:42:50\nWriting library                  : VirtualDub build 32706/release\n\nVideo\nID                               : 0\nFormat                           : MPEG-4 Visual\nFormat profile                   : Advanced Simple@L5\nFormat settings, BVOP            : Yes\nFormat settings, QPel            : No\nFormat settings, GMC             : No warppoints\nFormat settings, Matrix          : Default (H.263)\nCodec ID                         : XVID\nCodec ID/Hint                    : XviD\nDuration                         : 2h 8mn\nBit rate                         : 877 Kbps\nWidth                            : 640 pixels\nHeight                           : 272 pixels\nDisplay aspect ratio             : 2.35:1\nFrame rate                       : 23.976 fps\nResolution                       : 8 bits\nColorimetry                      : 4:2:0\nScan type                        : Progressive\nBits/(Pixel*Frame)               : 0.210\nStream size                      : 805 MiB (77%)\nWriting library                  : XviD 1.2.1 (UTC 2008-12-04)\n\nAudio\nID                               : 1\nFormat                           : MPEG Audio\nFormat version                   : Version 1\nFormat profile                   : Layer 3\nFormat_Settings_Mode             : Joint stereo\nFormat_Settings_ModeExtension    : MS Stereo\nCodec ID                         : 55\nCodec ID/Hint                    : MP3\nDuration                         : 2h 8mn\nBit rate mode                    : Constant\nBit rate                         : 256 Kbps\nChannel(s)                       : 2 channels\nSampling rate                    : 48.0 KHz\nStream size                      : 235 MiB (22%)\nAlignment                        : Split accross interleaves\nInterleave, duration             : 42 ms (1.00 video frame)\nInterleave, preload duration     : 500 ms\nWriting library                  : LAME3.98.2\n\n\n\n\n\nI am not adding screenshots as they are same as before .\n\nAll CREDITS to the xRG group for the source .","torrent":{"xt":"urn:btih:98da1ac22878904d9e965f6e80bea9e598f15149","amp;dn":"Once+Upon+a+Time+in+Mumbaai+2010+Hindi+Pre-DVDRip+XviD","amp;tr":["udp%3A%2F%2Ftracker.openbittorrent.com%3A80","udp%3A%2F%2Fopen.demonii.com%3A1337","udp%3A%2F%2Ftracker.coppersurfer.tk%3A6969","udp%3A%2F%2Fexodus.desync.com%3A6969"],"infoHash":"98da1ac22878904d9e965f6e80bea9e598f15149","infoHashBuffer":{"type":"Buffer","data":[152,218,26,194,40,120,144,77,158,150,95,110,128,190,169,229,152,241,81,73]},"announce":[],"urlList":[]}}